<svg id="Capa_1" enable-background="new 0 0 512 512" height="512" viewBox="0 0 512 512" width="512" xmlns="http://www.w3.org/2000/svg"><g><g><path d="m175.245 238.034c-6.745-5.736-14.484-8.198-24.031-8.198h-102.555c-21.351.001-38.659 17.309-38.659 38.66v93.854h138.345" fill="#ffe6b4"/><g><ellipse cx="99.936" cy="162.534" fill="#ffd0c7" rx="67.303" ry="67.303" transform="matrix(.23 -.973 .973 .23 -81.21 222.454)"/></g><g><circle cx="250.858" cy="160.211" fill="#ffd0c7" r="75.218"/></g><g><path d="m181.139 392.35h-30.794v-113.715c0-23.862 19.344-43.206 43.206-43.206h114.615c23.862 0 43.206 19.344 43.206 43.206v113.715h-39.026-40.793" fill="#ff9eb1"/></g><g><g><ellipse cx="395.096" cy="319.935" fill="#b8ecbc" rx="106.904" ry="107.072"/></g><g><path d="m433.958 299.041h-17.968v-17.968c0-11.539-9.354-20.893-20.893-20.893-11.539 0-20.893 9.354-20.893 20.893v17.968h-17.968c-11.539 0-20.893 9.354-20.893 20.893 0 11.539 9.354 20.893 20.893 20.893h17.968v17.968c0 11.539 9.354 20.894 20.893 20.894 11.539 0 20.893-9.354 20.893-20.894v-17.968h17.968c11.539 0 20.894-9.354 20.894-20.893 0-11.538-9.355-20.893-20.894-20.893z" fill="#faf7f5"/></g></g></g><g><path d="m226.53 402.35c-4.179 0-8.006-2.709-9.415-6.635-1.39-3.873-.195-8.328 2.946-10.986 3.291-2.785 8.083-3.128 11.746-.864 3.493 2.159 5.334 6.41 4.523 10.436-.929 4.612-5.082 8.049-9.8 8.049z"/><path d="m395.097 389.69c-17.035 0-30.894-13.859-30.894-30.894v-7.968h-7.968c-17.035 0-30.894-13.859-30.894-30.893 0-17.035 13.858-30.894 30.894-30.894h7.968v-7.968c0-17.035 13.858-30.894 30.894-30.894 17.035 0 30.893 13.859 30.893 30.894v7.968h7.968c17.035 0 30.894 13.859 30.894 30.894s-13.858 30.893-30.894 30.893h-7.968v7.968c0 17.035-13.858 30.894-30.893 30.894zm-38.862-80.649c-6.007 0-10.894 4.887-10.894 10.894s4.887 10.893 10.894 10.893h17.968c5.522 0 10 4.477 10 10v17.968c0 6.007 4.887 10.894 10.894 10.894s10.893-4.887 10.893-10.894v-17.968c0-5.523 4.478-10 10-10h17.968c6.007 0 10.894-4.887 10.894-10.893 0-6.007-4.887-10.894-10.894-10.894h-17.968c-5.522 0-10-4.477-10-10v-17.968c0-6.007-4.887-10.894-10.893-10.894-6.007 0-10.894 4.887-10.894 10.894v17.968c0 5.523-4.478 10-10 10z"/><path d="m395.097 202.863c-25.753 0-49.588 8.383-68.927 22.567-.031 0-.062-.001-.094-.001h-20.424c18.591-15.645 30.424-39.075 30.424-65.217 0-46.989-38.229-85.218-85.218-85.218-36.865 0-68.338 23.53-80.188 56.36-12.01-27.139-39.196-46.123-70.733-46.123-42.625 0-77.303 34.678-77.303 77.302 0 22.703 9.838 43.151 25.474 57.306-26.578.298-48.108 22.01-48.108 48.657v93.854c0 5.523 4.477 10 10 10h130.345v20c0 5.523 4.478 10 10 10h30.794c5.522 0 10-4.477 10-10s-4.478-10-10-10h-20.794v-103.715c0-18.31 14.896-33.206 33.206-33.206h111.438c-16.73 20.257-26.795 46.226-26.795 74.506 0 22.928 6.616 44.337 18.036 62.415h-24.677c-5.522 0-10 4.477-10 10s4.478 10 10 10h40.594c21.194 21.391 50.554 34.657 82.951 34.657 64.461 0 116.903-52.518 116.903-117.072-.001-64.554-52.443-117.072-116.904-117.072zm-144.239-107.869c35.961 0 65.218 29.256 65.218 65.218 0 35.961-29.257 65.217-65.218 65.217s-65.218-29.256-65.218-65.217c.001-35.962 29.258-65.218 65.218-65.218zm-208.224 67.54c0-31.597 25.706-57.302 57.303-57.302s57.303 25.706 57.303 57.302-25.706 57.303-57.303 57.303-57.303-25.707-57.303-57.303zm-22.634 189.816v-83.854c0-15.803 12.856-28.66 28.659-28.66h102.555c1.984 0 3.826.129 5.549.394-10.113 9.691-16.418 23.325-16.418 38.404v73.715h-120.345zm173.551-126.921c-5.341 0-10.5.791-15.368 2.262-7.479-5.186-16.168-7.763-26.417-7.852 8.579-7.767 15.412-17.428 19.833-28.316 5.251 13.246 13.732 24.874 24.465 33.906zm201.546 191.577c-53.433 0-96.903-43.546-96.903-97.072s43.471-97.071 96.903-97.071 96.903 43.546 96.903 97.072-43.471 97.071-96.903 97.071z"/></g></g></svg>