<svg id="Capa_1" enable-background="new 0 0 512 512" height="512" viewBox="0 0 512 512" width="512" xmlns="http://www.w3.org/2000/svg"><g><g><path d="m455.061 236.516v-58.629c0-8.284-6.716-15-15-15h-40.537v88.629h40.537c8.284 0 15-6.716 15-15z" fill="#f6e266"/></g><g><path d="m455.061 236.551v-24.675c0 8.265-6.7 14.965-14.965 14.965h-40.572v24.675h40.572c8.264 0 14.965-6.7 14.965-14.965z" fill="#ffd064"/></g><g><path d="m455.061 371.2v-58.629c0-8.284-6.716-15-15-15h-40.537v88.629h40.537c8.284 0 15-6.716 15-15z" fill="#e28086"/></g><g><path d="m455.061 371.235v-24.675c0 8.265-6.7 14.965-14.965 14.965h-40.572v24.675h40.572c8.264 0 14.965-6.7 14.965-14.965z" fill="#dd636e"/></g><g><path d="m455.061 173.468v-58.628c0-8.284-6.716-15-15-15h-40.537v88.629h40.537c8.284-.001 15-6.716 15-15.001z" fill="#9dc6fb"/></g><g><path d="m455.061 173.503v-24.675c0 8.265-6.7 14.965-14.965 14.965h-40.572v24.675h40.572c8.264 0 14.965-6.7 14.965-14.965z" fill="#80b4fb"/></g><g><path d="m389.353 497.16h-288.48c-13.807 0-25-11.193-25-25v-432.298c0-13.807 11.193-25 25-25h288.48c13.807 0 25 11.193 25 25v432.298c0 13.807-11.193 25-25 25z" fill="#ecbe6b"/></g><g><path d="m389.411 14.862h-9.648v437.731c0 5.51-4.467 9.977-9.977 9.977h-293.913v9.648c0 13.775 11.167 24.942 24.942 24.942h288.596c13.775 0 24.942-11.167 24.942-24.942v-432.415c0-13.775-11.167-24.941-24.942-24.941z" fill="#eab14d"/></g><g><circle cx="127.904" cy="86.236" fill="#365e7d" r="23.647"/></g><g><path d="m136.16 64.073c.958 2.571 1.484 5.351 1.484 8.256 0 13.06-10.587 23.647-23.647 23.647-2.904 0-5.685-.526-8.256-1.484 3.35 8.988 12.007 15.391 22.163 15.391 13.06 0 23.647-10.587 23.647-23.647 0-10.155-6.403-18.813-15.391-22.163z" fill="#2b4d66"/></g><g><circle cx="127.904" cy="170.773" fill="#365e7d" r="23.647"/></g><g><path d="m136.16 148.61c.958 2.571 1.484 5.351 1.484 8.256 0 13.06-10.587 23.647-23.647 23.647-2.904 0-5.685-.526-8.256-1.484 3.35 8.988 12.007 15.391 22.163 15.391 13.06 0 23.647-10.587 23.647-23.647 0-10.156-6.403-18.813-15.391-22.163z" fill="#2b4d66"/></g><g><circle cx="127.904" cy="255.364" fill="#365e7d" r="23.647"/></g><g><path d="m136.16 233.202c.958 2.571 1.484 5.351 1.484 8.256 0 13.06-10.587 23.647-23.647 23.647-2.904 0-5.685-.526-8.256-1.484 3.35 8.988 12.007 15.391 22.163 15.391 13.06 0 23.647-10.587 23.647-23.647 0-10.156-6.403-18.814-15.391-22.163z" fill="#2b4d66"/></g><g><circle cx="127.904" cy="339.901" fill="#365e7d" r="23.647"/></g><g><path d="m136.16 317.738c.958 2.571 1.484 5.351 1.484 8.256 0 13.06-10.587 23.647-23.647 23.647-2.904 0-5.685-.526-8.256-1.484 3.35 8.988 12.007 15.391 22.163 15.391 13.06 0 23.647-10.587 23.647-23.647 0-10.156-6.403-18.813-15.391-22.163z" fill="#2b4d66"/></g><g><circle cx="127.904" cy="424.438" fill="#365e7d" r="23.647"/></g><g><path d="m136.16 402.275c.958 2.571 1.484 5.351 1.484 8.256 0 13.06-10.587 23.647-23.647 23.647-2.904 0-5.685-.526-8.256-1.484 3.35 8.988 12.007 15.391 22.163 15.391 13.06 0 23.647-10.587 23.647-23.647 0-10.156-6.403-18.814-15.391-22.163z" fill="#2b4d66"/></g><g><path d="m295.153 240.092h-96.131c-9.941 0-18-8.059-18-18v-53.115c0-9.941 8.059-18 18-18h96.131c9.941 0 18 8.059 18 18v53.115c0 9.941-8.059 18-18 18z" fill="#f9f6f9"/></g><g><path d="m299.886 151.617c.405 1.498.64 3.065.64 4.691v53.199c0 9.918-8.04 17.958-17.958 17.958h-96.215c-1.626 0-3.193-.236-4.691-.64 2.065 7.639 9.025 13.267 17.318 13.267h96.215c9.918 0 17.958-8.04 17.958-17.958v-53.199c0-8.293-5.628-15.253-13.267-17.318z" fill="#e7ecf6"/></g><g><path d="m462.543 114.805c0-12.378-10.07-22.448-22.448-22.448h-18.26v-52.553c0-17.879-14.545-32.424-32.424-32.424h-37.566c-.056-4.085-3.379-7.38-7.478-7.38-4.098 0-7.421 3.295-7.477 7.379h-28.566c-4.133 0-7.483 3.35-7.483 7.483s3.35 7.483 7.483 7.483h28.56v341.203c0 4.132 3.35 7.483 7.483 7.483s7.483-3.35 7.483-7.483v-341.204h37.561c9.627 0 17.459 7.832 17.459 17.459v432.414c0 9.627-7.832 17.459-17.459 17.459h-37.561v-89.51c0-4.132-3.35-7.483-7.483-7.483s-7.483 3.35-7.483 7.483v89.51h-236.07c-9.627 0-17.459-7.832-17.459-17.459v-25.025h23.337c5.564 5.19 13.021 8.374 21.211 8.374 17.165 0 31.129-13.964 31.129-31.129s-13.964-31.129-31.129-31.129c-8.19 0-15.647 3.184-21.211 8.374h-23.336v-39.027h23.337c5.564 5.19 13.021 8.374 21.211 8.374 17.165 0 31.129-13.964 31.129-31.129s-13.964-31.129-31.129-31.129c-8.191 0-15.648 3.185-21.211 8.374h-23.337v-39.027h23.337c5.564 5.19 13.021 8.374 21.211 8.374 17.165 0 31.129-13.964 31.129-31.129s-13.964-31.129-31.129-31.129c-8.19 0-15.647 3.184-21.211 8.374h-23.337v-7.003c0-4.132-3.35-7.483-7.483-7.483s-7.483 3.35-7.483 7.483v7.003h-11.45c-4.133 0-7.483 3.35-7.483 7.483s3.35 7.483 7.483 7.483h11.451v15.58h-11.451c-4.133 0-7.483 3.35-7.483 7.483s3.35 7.483 7.483 7.483h11.451v39.027h-11.451c-4.133 0-7.483 3.35-7.483 7.483s3.35 7.483 7.483 7.483h11.451v15.58h-11.451c-4.133 0-7.483 3.35-7.483 7.483s3.35 7.483 7.483 7.483h11.451v39.027h-11.451c-4.133 0-7.483 3.35-7.483 7.483s3.35 7.483 7.483 7.483h11.451v15.58h-11.451c-4.133 0-7.483 3.35-7.483 7.483s3.35 7.483 7.483 7.483h11.451v25.025c0 17.879 14.545 32.424 32.424 32.424h236.076c.067 4.074 3.385 7.358 7.476 7.358s7.409-3.284 7.476-7.358h37.567c17.879 0 32.424-14.546 32.424-32.424v-78.536h18.26c12.377 0 22.448-10.07 22.448-22.448v-58.698c0-12.378-10.07-22.448-22.448-22.448h-18.26v-31.09h18.26c12.377 0 22.448-10.07 22.448-22.448v-121.75zm-318.475 140.559c0 8.913-7.252 16.164-16.164 16.164-1.259 0-2.479-.159-3.655-.433.009-.153.023-.304.023-.459 0-4.132-3.35-7.483-7.483-7.483h-3.04c-1.278-2.312-2.009-4.966-2.009-7.79s.732-5.478 2.01-7.79h3.04c4.133 0 7.483-3.35 7.483-7.483 0-.155-.014-.306-.023-.459 1.177-.274 2.397-.433 3.655-.433 8.912.002 16.163 7.253 16.163 16.166zm-60.712-7.79h14.406c-.644 2.491-.987 5.101-.987 7.79s.343 5.299.987 7.79h-14.406zm60.712 92.327c0 8.913-7.252 16.164-16.164 16.164-1.259 0-2.479-.159-3.655-.433.009-.153.023-.304.023-.459 0-4.132-3.35-7.483-7.483-7.483h-3.04c-1.278-2.312-2.009-4.966-2.009-7.79s.732-5.478 2.009-7.79h3.04c4.133 0 7.483-3.35 7.483-7.483 0-.155-.014-.307-.023-.459 1.177-.274 2.397-.433 3.655-.433 8.913.001 16.164 7.253 16.164 16.166zm-60.712-7.79h14.406c-.644 2.491-.987 5.101-.987 7.79s.343 5.299.987 7.79h-14.406zm60.712 92.326c0 8.913-7.252 16.164-16.164 16.164-1.259 0-2.479-.159-3.655-.433.009-.152.023-.304.023-.459 0-4.132-3.35-7.483-7.483-7.483h-3.04c-1.278-2.312-2.01-4.967-2.01-7.79s.732-5.478 2.01-7.79h3.04c4.133 0 7.483-3.35 7.483-7.483 0-.155-.014-.306-.023-.459 1.177-.274 2.397-.433 3.655-.433 8.913.002 16.164 7.254 16.164 16.166zm-60.712-7.79h14.406c-.644 2.491-.987 5.101-.987 7.79s.343 5.3.987 7.79h-14.406zm356.739-309.325c4.126 0 7.483 3.356 7.483 7.483v58.698c0 4.126-3.356 7.483-7.483 7.483h-18.26v-73.663h18.26zm0 197.731c4.126 0 7.483 3.356 7.483 7.483v58.698c0 4.126-3.356 7.483-7.483 7.483h-18.26v-73.663h18.26zm0-61.02h-18.26v-48.083h18.26c2.623 0 5.141-.456 7.483-1.287v41.887c0 4.127-3.357 7.483-7.483 7.483z"/><path d="m56.94 178.563c-4.133 0-7.483 3.35-7.483 7.483s3.35 7.483 7.483 7.483h49.753c5.564 5.19 13.021 8.374 21.211 8.374 17.165 0 31.129-13.964 31.129-31.129s-13.964-31.129-31.129-31.129c-8.19 0-15.647 3.184-21.211 8.374h-23.337v-39.026h23.337c5.564 5.19 13.021 8.374 21.211 8.374 17.165 0 31.129-13.964 31.129-31.129s-13.964-31.129-31.129-31.129c-8.19 0-15.647 3.184-21.211 8.374h-23.337v-23.679c0-9.627 7.832-17.459 17.459-17.459h169.292c4.133 0 7.483-3.35 7.483-7.483s-3.35-7.483-7.483-7.483h-169.292c-17.879 0-32.424 14.546-32.424 32.424v23.677h-11.451c-4.133 0-7.483 3.35-7.483 7.483 0 4.132 3.35 7.483 7.483 7.483h11.451v15.58h-11.451c-4.133 0-7.483 3.35-7.483 7.483 0 4.132 3.35 7.483 7.483 7.483h11.451v39.026h-11.451c-4.133 0-7.483 3.35-7.483 7.483 0 4.132 3.35 7.483 7.483 7.483h11.451v15.58h-11.451zm87.128-92.327c0 8.913-7.252 16.164-16.164 16.164-1.259 0-2.479-.159-3.655-.433.009-.152.023-.304.023-.459 0-4.132-3.35-7.483-7.483-7.483h-3.04c-1.278-2.312-2.01-4.966-2.01-7.79s.732-5.478 2.01-7.79h3.04c4.133 0 7.483-3.35 7.483-7.483 0-.155-.014-.306-.023-.459 1.177-.274 2.397-.433 3.655-.433 8.913.002 16.164 7.253 16.164 16.166zm-60.712-7.79h14.406c-.644 2.491-.987 5.101-.987 7.79s.343 5.299.987 7.79h-14.406zm60.712 92.327c0 8.913-7.252 16.164-16.164 16.164-1.259 0-2.479-.159-3.655-.433.009-.153.023-.304.023-.459 0-4.132-3.35-7.483-7.483-7.483h-3.04c-1.278-2.312-2.009-4.966-2.009-7.79s.732-5.478 2.01-7.79h3.04c4.133 0 7.483-3.35 7.483-7.483 0-.155-.014-.306-.023-.459 1.177-.274 2.397-.433 3.655-.433 8.912.001 16.163 7.252 16.163 16.166zm-60.712-7.791h14.406c-.644 2.491-.987 5.101-.987 7.79s.343 5.299.987 7.79h-14.406z"/><path d="m173.539 168.935v53.199c0 14.028 11.413 25.441 25.441 25.441h96.216c14.028 0 25.441-11.413 25.441-25.441v-53.199c0-14.028-11.413-25.441-25.441-25.441h-96.216c-14.028 0-25.441 11.413-25.441 25.441zm132.132 0v53.199c0 5.776-4.699 10.476-10.476 10.476h-96.216c-5.777 0-10.476-4.699-10.476-10.476v-53.199c0-5.776 4.699-10.476 10.476-10.476h96.216c5.777 0 10.476 4.7 10.476 10.476z"/><path d="m222.434 187.13h47.673c4.133 0 7.483-3.35 7.483-7.483s-3.35-7.483-7.483-7.483h-47.673c-4.133 0-7.483 3.35-7.483 7.483s3.35 7.483 7.483 7.483z"/><path d="m222.434 216.674h47.673c4.133 0 7.483-3.35 7.483-7.483 0-4.132-3.35-7.483-7.483-7.483h-47.673c-4.133 0-7.483 3.35-7.483 7.483.001 4.133 3.35 7.483 7.483 7.483z"/></g></g></svg>